<svg width="53" height="32" viewBox="0 0 53 32" fill="none" xmlns="http://www.w3.org/2000/svg">
<path d="M13.028 31.462C10.648 31.462 8.492 30.818 6.56 29.53C4.628 28.242 3.102 26.45 1.982 24.154C0.89 21.83 0.344 19.156 0.344 16.132C0.344 13.08 0.89 10.42 1.982 8.152C3.074 5.856 4.572 4.078 6.476 2.818C8.38 1.53 10.536 0.886 12.944 0.886C15.38 0.886 17.55 1.53 19.454 2.818C21.358 4.078 22.856 5.856 23.948 8.152C25.068 10.448 25.628 13.122 25.628 16.174C25.628 19.226 25.068 21.9 23.948 24.196C22.856 26.492 21.358 28.284 19.454 29.572C17.578 30.832 15.436 31.462 13.028 31.462ZM12.986 25.624C14.218 25.624 15.282 25.274 16.178 24.574C17.074 23.846 17.76 22.782 18.236 21.382C18.74 19.954 18.992 18.218 18.992 16.174C18.992 14.102 18.74 12.366 18.236 10.966C17.76 9.566 17.074 8.516 16.178 7.816C15.282 7.088 14.204 6.724 12.944 6.724C11.74 6.724 10.676 7.074 9.752 7.774C8.856 8.474 8.17 9.524 7.694 10.924C7.218 12.324 6.98 14.06 6.98 16.132C6.98 18.204 7.218 19.94 7.694 21.34C8.17 22.74 8.856 23.804 9.752 24.532C10.676 25.26 11.754 25.624 12.986 25.624ZM33.5247 31V1.348H40.0767V31H33.5247ZM27.8127 6.934V1.348H39.6567V6.934H27.8127ZM49.1457 31.462C48.0537 31.462 47.1437 31.084 46.4157 30.328C45.6877 29.572 45.3237 28.662 45.3237 27.598C45.3237 26.478 45.6877 25.554 46.4157 24.826C47.1437 24.07 48.0537 23.692 49.1457 23.692C50.2657 23.692 51.1757 24.07 51.8757 24.826C52.6037 25.554 52.9677 26.478 52.9677 27.598C52.9677 28.662 52.6037 29.572 51.8757 30.328C51.1757 31.084 50.2657 31.462 49.1457 31.462Z" fill="#216F66"/>
</svg>
