<svg width="61" height="32" viewBox="0 0 61 32" fill="none" xmlns="http://www.w3.org/2000/svg">
<path d="M13.028 31.462C10.648 31.462 8.492 30.818 6.56 29.53C4.628 28.242 3.102 26.45 1.982 24.154C0.89 21.83 0.344 19.156 0.344 16.132C0.344 13.08 0.89 10.42 1.982 8.152C3.074 5.856 4.572 4.078 6.476 2.818C8.38 1.53 10.536 0.886 12.944 0.886C15.38 0.886 17.55 1.53 19.454 2.818C21.358 4.078 22.856 5.856 23.948 8.152C25.068 10.448 25.628 13.122 25.628 16.174C25.628 19.226 25.068 21.9 23.948 24.196C22.856 26.492 21.358 28.284 19.454 29.572C17.578 30.832 15.436 31.462 13.028 31.462ZM12.986 25.624C14.218 25.624 15.282 25.274 16.178 24.574C17.074 23.846 17.76 22.782 18.236 21.382C18.74 19.954 18.992 18.218 18.992 16.174C18.992 14.102 18.74 12.366 18.236 10.966C17.76 9.566 17.074 8.516 16.178 7.816C15.282 7.088 14.204 6.724 12.944 6.724C11.74 6.724 10.676 7.074 9.752 7.774C8.856 8.474 8.17 9.524 7.694 10.924C7.218 12.324 6.98 14.06 6.98 16.132C6.98 18.204 7.218 19.94 7.694 21.34C8.17 22.74 8.856 23.804 9.752 24.532C10.676 25.26 11.754 25.624 12.986 25.624ZM27.9807 27.304L39.3627 15.544C40.0627 14.844 40.6227 14.2 41.0427 13.612C41.4627 13.024 41.7707 12.478 41.9667 11.974C42.1627 11.442 42.2607 10.91 42.2607 10.378C42.2607 9.23 41.8827 8.334 41.1267 7.69C40.3987 7.018 39.4327 6.682 38.2287 6.682C37.0527 6.682 35.9887 7.004 35.0367 7.648C34.1127 8.264 33.2167 9.286 32.3487 10.714L27.9387 6.892C29.1147 4.904 30.6127 3.406 32.4327 2.398C34.2527 1.39 36.3387 0.886 38.6907 0.886C40.7347 0.886 42.4987 1.264 43.9827 2.02C45.4947 2.776 46.6567 3.854 47.4687 5.254C48.3087 6.654 48.7287 8.292 48.7287 10.168C48.7287 11.344 48.5747 12.436 48.2667 13.444C47.9587 14.424 47.4547 15.404 46.7547 16.384C46.0827 17.336 45.1727 18.386 44.0247 19.534L36.1287 27.388L27.9807 27.304ZM27.9807 31V27.304L33.5667 25.372H49.3167V31H27.9807ZM56.9797 31.462C55.8877 31.462 54.9777 31.084 54.2497 30.328C53.5217 29.572 53.1577 28.662 53.1577 27.598C53.1577 26.478 53.5217 25.554 54.2497 24.826C54.9777 24.07 55.8877 23.692 56.9797 23.692C58.0997 23.692 59.0097 24.07 59.7097 24.826C60.4377 25.554 60.8017 26.478 60.8017 27.598C60.8017 28.662 60.4377 29.572 59.7097 30.328C59.0097 31.084 58.0997 31.462 56.9797 31.462Z" fill="#216F66"/>
</svg>
