<svg width="60" height="32" viewBox="0 0 60 32" fill="none" xmlns="http://www.w3.org/2000/svg">
<path d="M13.028 31.462C10.648 31.462 8.492 30.818 6.56 29.53C4.628 28.242 3.102 26.45 1.982 24.154C0.89 21.83 0.344 19.156 0.344 16.132C0.344 13.08 0.89 10.42 1.982 8.152C3.074 5.856 4.572 4.078 6.476 2.818C8.38 1.53 10.536 0.886 12.944 0.886C15.38 0.886 17.55 1.53 19.454 2.818C21.358 4.078 22.856 5.856 23.948 8.152C25.068 10.448 25.628 13.122 25.628 16.174C25.628 19.226 25.068 21.9 23.948 24.196C22.856 26.492 21.358 28.284 19.454 29.572C17.578 30.832 15.436 31.462 13.028 31.462ZM12.986 25.624C14.218 25.624 15.282 25.274 16.178 24.574C17.074 23.846 17.76 22.782 18.236 21.382C18.74 19.954 18.992 18.218 18.992 16.174C18.992 14.102 18.74 12.366 18.236 10.966C17.76 9.566 17.074 8.516 16.178 7.816C15.282 7.088 14.204 6.724 12.944 6.724C11.74 6.724 10.676 7.074 9.752 7.774C8.856 8.474 8.17 9.524 7.694 10.924C7.218 12.324 6.98 14.06 6.98 16.132C6.98 18.204 7.218 19.94 7.694 21.34C8.17 22.74 8.856 23.804 9.752 24.532C10.676 25.26 11.754 25.624 12.986 25.624ZM37.5987 31.462C35.5547 31.462 33.6787 31.112 31.9707 30.412C30.2627 29.684 28.8207 28.648 27.6447 27.304L31.8867 23.062C32.4187 23.846 33.1887 24.49 34.1967 24.994C35.2327 25.47 36.3247 25.708 37.4727 25.708C38.5087 25.708 39.4047 25.526 40.1607 25.162C40.9167 24.798 41.5047 24.28 41.9247 23.608C42.3727 22.936 42.5967 22.138 42.5967 21.214C42.5967 20.29 42.3727 19.506 41.9247 18.862C41.5047 18.19 40.8747 17.672 40.0347 17.308C39.2227 16.944 38.2427 16.762 37.0947 16.762C36.5627 16.762 36.0027 16.804 35.4147 16.888C34.8547 16.944 34.3787 17.042 33.9867 17.182L36.8847 13.528C37.6687 13.304 38.4107 13.122 39.1107 12.982C39.8387 12.814 40.5107 12.73 41.1267 12.73C42.6387 12.73 43.9967 13.094 45.2007 13.822C46.4047 14.522 47.3567 15.53 48.0567 16.846C48.7847 18.134 49.1487 19.674 49.1487 21.466C49.1487 23.426 48.6587 25.162 47.6787 26.674C46.7267 28.186 45.3827 29.362 43.6467 30.202C41.9387 31.042 39.9227 31.462 37.5987 31.462ZM33.9867 17.182V13.528L41.2107 5.044L48.6027 5.002L41.0847 13.57L33.9867 17.182ZM29.4927 6.934V1.348H48.6027V5.002L43.4367 6.934H29.4927ZM55.7902 31.462C54.6982 31.462 53.7882 31.084 53.0602 30.328C52.3322 29.572 51.9682 28.662 51.9682 27.598C51.9682 26.478 52.3322 25.554 53.0602 24.826C53.7882 24.07 54.6982 23.692 55.7902 23.692C56.9102 23.692 57.8202 24.07 58.5202 24.826C59.2482 25.554 59.6122 26.478 59.6122 27.598C59.6122 28.662 59.2482 29.572 58.5202 30.328C57.8202 31.084 56.9102 31.462 55.7902 31.462Z" fill="#216F66"/>
</svg>
